0
SECTION
2
HEADER
9
$INSUNITS
70
4
9
$ACADVER
1
AC1014
9
$HANDSEED
5
FFFF
0
ENDSEC
0
SECTION
2
TABLES
0
TABLE
2
VPORT
5
8
100
AcDbSymbolTable
0
ENDTAB
0
TABLE
2
LTYPE
5
5
100
AcDbSymbolTable
0
LTYPE
5
14
100
AcDbSymbolTableRecord
100
AcDbLinetypeTableRecord
2
BYBLOCK
70
0
0
LTYPE
5
15
100
AcDbSymbolTableRecord
100
AcDbLinetypeTableRecord
2
BYLAYER
70
0
0
ENDTAB
0
TABLE
2
LAYER
5
2
100
AcDbSymbolTable
70
2
0
LAYER
5
50
100
AcDbSymbolTableRecord
100
AcDbLayerTableRecord
2
0
70
0
6
CONTINUOUS
0
ENDTAB
0
TABLE
2
STYLE
5
3
100
AcDbSymbolTable
70
1
0
STYLE
5
11
100
AcDbSymbolTableRecord
100
AcDbTextStyleTableRecord
2
STANDARD
70
0
0
ENDTAB
0
TABLE
2
VIEW
5
6
100
AcDbSymbolTable
70
0
0
ENDTAB
0
TABLE
2
UCS
5
7
100
AcDbSymbolTable
70
0
0
ENDTAB
0
TABLE
2
APPID
5
9
100
AcDbSymbolTable
70
2
0
APPID
5
12
100
AcDbSymbolTableRecord
100
AcDbRegAppTableRecord
2
ACAD
70
0
0
ENDTAB
0
TABLE
2
DIMSTYLE
5
A
100
AcDbSymbolTable
70
1
0
ENDTAB
0
TABLE
2
BLOCK_RECORD
5
1
100
AcDbSymbolTable
70
1
0
BLOCK_RECORD
5
1F
100
AcDbSymbolTableRecord
100
AcDbBlockTableRecord
2
*MODEL_SPACE
0
BLOCK_RECORD
5
1B
100
AcDbSymbolTableRecord
100
AcDbBlockTableRecord
2
*PAPER_SPACE
0
ENDTAB
0
ENDSEC
0
SECTION
2
BLOCKS
0
BLOCK
5
20
100
AcDbEntity
100
AcDbBlockBegin
2
*MODEL_SPACE
0
ENDBLK
5
21
100
AcDbEntity
100
AcDbBlockEnd
0
BLOCK
5
1C
100
AcDbEntity
100
AcDbBlockBegin
2
*PAPER_SPACE
0
ENDBLK
5
1D
100
AcDbEntity
100
AcDbBlockEnd
0
ENDSEC
0
SECTION
2
ENTITIES
0
LWPOLYLINE
5
100
100
AcDbEntity
8
0
100
AcDbPolyline
90
4
70
1
43
0.0
10
22.530003325545238
20
72.3907731941501
10
17.530003325545238
20
72.3907731941501
10
17.530003325545238
20
70.390773194150086
10
22.530003325545238
20
70.390773194150086
0
LWPOLYLINE
5
101
100
AcDbEntity
8
0
100
AcDbPolyline
90
4
70
1
43
0.0
10
-23.873960547159623
20
106.5607731941501
10
-23.873960547159623
20
108.56077319415009
10
-28.873960547159623
20
108.56077319415009
10
-28.873960547159623
20
106.5607731941501
0
LWPOLYLINE
5
102
100
AcDbEntity
8
0
100
AcDbPolyline
90
4
70
1
43
0.0
10
2.8911979736182145
20
40.875773194150071
10
2.8911979736182145
20
45.875773194150071
10
0.89119797361821507
20
45.875773194150071
10
0.89119797361821518
20
40.875773194150071
0
LWPOLYLINE
5
103
100
AcDbEntity
8
0
100
AcDbPolyline
90
4
70
1
43
0.0
10
38.891197973618212
20
40.875773194150071
10
38.891197973618212
20
45.875773194150071
10
36.891197973618212
20
45.875773194150071
10
36.891197973618212
20
40.875773194150071
0
LWPOLYLINE
5
104
100
AcDbEntity
8
0
100
AcDbPolyline
90
4
70
1
43
0.0
10
22.530003325545238
20
106.3907731941501
10
22.530003325545238
20
108.3907731941501
10
17.530003325545238
20
108.3907731941501
10
17.530003325545238
20
106.3907731941501
0
LWPOLYLINE
5
105
100
AcDbEntity
8
0
100
AcDbPolyline
90
4
70
1
43
0.0
10
-7.8739605471596192
20
106.5607731941501
10
-7.8739605471596192
20
108.56077319415009
10
-12.873960547159619
20
108.56077319415009
10
-12.873960547159619
20
106.5607731941501
0
LWPOLYLINE
5
106
100
AcDbEntity
8
0
100
AcDbPolyline
90
4
70
1
43
0.0
10
-35.902224816246147
20
41.859564528479048
10
-35.902224816246147
20
46.859564528479048
10
-37.902224816246147
20
46.859564528479048
10
-37.902224816246147
20
41.859564528479048
0
LWPOLYLINE
5
107
100
AcDbEntity
8
0
100
AcDbPolyline
90
4
70
1
43
0.0
10
-7.8739605471596192
20
70.560773194150087
10
-7.8739605471596192
20
72.560773194150102
10
-12.873960547159619
20
72.560773194150102
10
-12.873960547159619
20
70.560773194150087
0
LWPOLYLINE
5
108
100
AcDbEntity
8
0
100
AcDbPolyline
90
4
70
1
43
0.0
10
39.030003325545238
20
86.890773194150086
10
39.030003325545238
20
91.890773194150086
10
37.030003325545231
20
91.890773194150086
10
37.030003325545231
20
86.890773194150086
0
LWPOLYLINE
5
109
100
AcDbEntity
8
0
100
AcDbPolyline
90
4
70
1
43
0.0
10
2.8911979736182145
20
56.875773194150064
10
2.8911979736182145
20
61.875773194150064
10
0.89119797361821507
20
61.875773194150064
10
0.89119797361821518
20
56.875773194150064
0
LWPOLYLINE
5
110
100
AcDbEntity
8
0
100
AcDbPolyline
90
4
70
1
43
0.0
10
38.891197973618212
20
61.875773194150064
10
36.891197973618212
20
61.875773194150064
10
36.891197973618212
20
56.875773194150064
10
38.891197973618212
20
56.875773194150064
0
LWPOLYLINE
5
111
100
AcDbEntity
8
0
100
AcDbPolyline
90
4
70
1
43
0.0
10
3.030003325545235
20
86.890773194150086
10
3.030003325545235
20
91.890773194150086
10
1.0300033255452357
20
91.890773194150086
10
1.0300033255452357
20
86.890773194150086
0
LWPOLYLINE
5
112
100
AcDbEntity
8
0
100
AcDbPolyline
90
4
70
1
43
0.0
10
-23.873960547159623
20
70.560773194150087
10
-23.873960547159623
20
72.560773194150102
10
-28.873960547159623
20
72.560773194150102
10
-28.873960547159623
20
70.560773194150087
0
LWPOLYLINE
5
113
100
AcDbEntity
8
0
100
AcDbPolyline
90
4
70
1
43
0.0
10
-21.902225054922006
20
41.856979393283062
10
-21.902225054922006
20
46.856979393283062
10
-23.902225054922006
20
46.856979393283062
10
-23.902225054922006
20
41.856979393283062
0
CIRCLE
5
114
100
AcDbEntity
8
0
100
AcDbCircle
10
-37
20
24.499999999999996
30
0
40
1.3749999999999973
0
CIRCLE
5
115
100
AcDbEntity
8
0
100
AcDbCircle
10
21.000000000000011
20
-24.499999999999996
30
0
40
1.3750000000000018
0
CIRCLE
5
116
100
AcDbEntity
8
0
100
AcDbCircle
10
21.000000000000007
20
24.500000000000007
30
0
40
1.3750000000000018
0
CIRCLE
5
117
100
AcDbEntity
8
0
100
AcDbCircle
10
-36.999999999999993
20
-24.500000000000007
30
0
40
1.3749999999999973
0
CIRCLE
5
118
100
AcDbEntity
8
0
100
AcDbCircle
10
39
20
24.500000000000021
30
0
40
1.3750000000000018
0
CIRCLE
5
119
100
AcDbEntity
8
0
100
AcDbCircle
10
-19.000000000000007
20
24.500000000000021
30
0
40
1.3750000000000018
0
CIRCLE
5
120
100
AcDbEntity
8
0
100
AcDbCircle
10
39
20
-24.500000000000021
30
0
40
1.3750000000000018
0
CIRCLE
5
121
100
AcDbEntity
8
0
100
AcDbCircle
10
-19.000000000000007
20
-24.500000000000021
30
0
40
1.3750000000000018
0
LWPOLYLINE
5
122
100
AcDbEntity
8
0
100
AcDbPolyline
90
8
70
1
43
0.0
10
-43.500000648200498
20
106.49999957531691
42
-0.41421356237309426
10
-38.500000648200512
20
111.49999957531691
10
41.499999351799488
20
111.49999957531691
42
-0.41421356237309453
10
46.499999351799488
20
106.49999957531691
10
46.499999351799481
20
-23.500000424683094
42
-0.41421356237309553
10
41.499999351799488
20
-28.500000424683094
10
-38.500000648200512
20
-28.500000424683087
42
-0.41421356237309553
10
-43.500000648200498
20
-23.500000424683094
0
ENDSEC
0
SECTION
2
OBJECTS
0
DICTIONARY
5
C
100
AcDbDictionary
3
ACAD_GROUP
350
D
3
ACAD_MLINESTYLE
350
17
0
DICTIONARY
5
D
100
AcDbDictionary
0
DICTIONARY
5
1A
330
C
100
AcDbDictionary
0
DICTIONARY
5
17
100
AcDbDictionary
0
ENDSEC
0
EOF
